<svg xmlns="http://www.w3.org/2000/svg" width="700" height="486" viewBox="0 0 700 486"><text x="44.0" y="58.0" font-family='"Outfit","Segoe UI","Noto Sans SC","PingFang SC","Microsoft YaHei","DejaVu Sans","Liberation Sans","Helvetica Neue",sans-serif' font-size="21" font-weight="600" fill="#16323F" text-anchor="start">09-ai-semantic  ·  智能语义</text><text x="44.0" y="82.0" font-family='"Outfit","Segoe UI","Noto Sans SC","PingFang SC","Microsoft YaHei","DejaVu Sans","Liberation Sans","Helvetica Neue",sans-serif' font-size="11" font-weight="400" fill="#9c968c" text-anchor="start">方形主标</text><svg x="44" y="94" width="216" height="216" viewBox="0 0 100 100" fill="none"><g transform="translate(50 50) scale(1.2) translate(-50 -50)"><circle cx="46" cy="56" r="22" fill="none" stroke="#16323F" stroke-width="3.33" stroke-linecap="round" stroke-linejoin="round"/><polygon points="81,4 83.97,14.03 94,17 83.97,19.97 81,30 78.03,19.97 68,17 78.03,14.03" fill="none" stroke="#E4963A" stroke-width="3.33" stroke-linecap="round" stroke-linejoin="round"/></g></svg><text x="316.0" y="142.0" font-family='"Outfit","Segoe UI","Noto Sans SC","PingFang SC","Microsoft YaHei","DejaVu Sans","Liberation Sans","Helvetica Neue",sans-serif' font-size="11" font-weight="400" fill="#9c968c" text-anchor="start">横向组合</text><svg x="316" y="154" width="340" height="96" viewBox="0 0 340 96"><svg x="0" y="10" width="76" height="76" viewBox="0 0 100 100"><g transform="translate(50 50) scale(1.2) translate(-50 -50)"><circle cx="46" cy="56" r="22" fill="none" stroke="#16323F" stroke-width="3.33" stroke-linecap="round" stroke-linejoin="round"/><polygon points="81,4 83.97,14.03 94,17 83.97,19.97 81,30 78.03,19.97 68,17 78.03,14.03" fill="none" stroke="#E4963A" stroke-width="3.33" stroke-linecap="round" stroke-linejoin="round"/></g></svg><text x="97.0" y="53.0" font-family='"Outfit","Segoe UI","Noto Sans SC","PingFang SC","Microsoft YaHei","DejaVu Sans","Liberation Sans","Helvetica Neue",sans-serif' font-size="44" font-weight="300" fill="#16323F" text-anchor="start" letter-spacing="0.6">Panomint</text><text x="97.0" y="81.0" font-family='"Outfit","Segoe UI","Noto Sans SC","PingFang SC","Microsoft YaHei","DejaVu Sans","Liberation Sans","Helvetica Neue",sans-serif' font-size="16" font-weight="300" fill="#6f6a62" text-anchor="start" letter-spacing="6">全景相册系统</text></svg><text x="44.0" y="348.0" font-family='"Outfit","Segoe UI","Noto Sans SC","PingFang SC","Microsoft YaHei","DejaVu Sans","Liberation Sans","Helvetica Neue",sans-serif' font-size="11" font-weight="400" fill="#9c968c" text-anchor="start">小尺寸可读性（16 / 24 / 32 / 48px）</text><svg x="44" y="360" width="16" height="16" viewBox="0 0 100 100" fill="none"><g transform="translate(50 50) scale(1.2) translate(-50 -50)"><circle cx="46" cy="56" r="22" fill="none" stroke="#16323F" stroke-width="3.33" stroke-linecap="round" stroke-linejoin="round"/><polygon points="81,4 83.97,14.03 94,17 83.97,19.97 81,30 78.03,19.97 68,17 78.03,14.03" fill="none" stroke="#E4963A" stroke-width="3.33" stroke-linecap="round" stroke-linejoin="round"/></g></svg><text x="44.0" y="392.0" font-family='"Outfit","Segoe UI","Noto Sans SC","PingFang SC","Microsoft YaHei","DejaVu Sans","Liberation Sans","Helvetica Neue",sans-serif' font-size="10" font-weight="400" fill="#9c968c" text-anchor="start">16</text><svg x="106" y="360" width="24" height="24" viewBox="0 0 100 100" fill="none"><g transform="translate(50 50) scale(1.2) translate(-50 -50)"><circle cx="46" cy="56" r="22" fill="none" stroke="#16323F" stroke-width="3.33" stroke-linecap="round" stroke-linejoin="round"/><polygon points="81,4 83.97,14.03 94,17 83.97,19.97 81,30 78.03,19.97 68,17 78.03,14.03" fill="none" stroke="#E4963A" stroke-width="3.33" stroke-linecap="round" stroke-linejoin="round"/></g></svg><text x="106.0" y="400.0" font-family='"Outfit","Segoe UI","Noto Sans SC","PingFang SC","Microsoft YaHei","DejaVu Sans","Liberation Sans","Helvetica Neue",sans-serif' font-size="10" font-weight="400" fill="#9c968c" text-anchor="start">24</text><svg x="170" y="360" width="32" height="32" viewBox="0 0 100 100" fill="none"><g transform="translate(50 50) scale(1.2) translate(-50 -50)"><circle cx="46" cy="56" r="22" fill="none" stroke="#16323F" stroke-width="3.33" stroke-linecap="round" stroke-linejoin="round"/><polygon points="81,4 83.97,14.03 94,17 83.97,19.97 81,30 78.03,19.97 68,17 78.03,14.03" fill="none" stroke="#E4963A" stroke-width="3.33" stroke-linecap="round" stroke-linejoin="round"/></g></svg><text x="170.0" y="408.0" font-family='"Outfit","Segoe UI","Noto Sans SC","PingFang SC","Microsoft YaHei","DejaVu Sans","Liberation Sans","Helvetica Neue",sans-serif' font-size="10" font-weight="400" fill="#9c968c" text-anchor="start">32</text><svg x="242" y="360" width="48" height="48" viewBox="0 0 100 100" fill="none"><g transform="translate(50 50) scale(1.2) translate(-50 -50)"><circle cx="46" cy="56" r="22" fill="none" stroke="#16323F" stroke-width="3.33" stroke-linecap="round" stroke-linejoin="round"/><polygon points="81,4 83.97,14.03 94,17 83.97,19.97 81,30 78.03,19.97 68,17 78.03,14.03" fill="none" stroke="#E4963A" stroke-width="3.33" stroke-linecap="round" stroke-linejoin="round"/></g></svg><text x="242.0" y="424.0" font-family='"Outfit","Segoe UI","Noto Sans SC","PingFang SC","Microsoft YaHei","DejaVu Sans","Liberation Sans","Helvetica Neue",sans-serif' font-size="10" font-weight="400" fill="#9c968c" text-anchor="start">48</text><text x="44.0" y="438.0" font-family='"Outfit","Segoe UI","Noto Sans SC","PingFang SC","Microsoft YaHei","DejaVu Sans","Liberation Sans","Helvetica Neue",sans-serif' font-size="12.5" font-weight="600" fill="#16323F" text-anchor="start">语义角度：智能维度</text><text x="44.0" y="458.0" font-family='"Outfit","Segoe UI","Noto Sans SC","PingFang SC","Microsoft YaHei","DejaVu Sans","Liberation Sans","Helvetica Neue",sans-serif' font-size="12" font-weight="400" fill="#6f6a62" text-anchor="start">球体 + AI 星芒。指向 Chinese-CLIP 中文语义检索，这是与竞品的硬差距所在。</text><text x="44.0" y="475.0" font-family='"Outfit","Segoe UI","Noto Sans SC","PingFang SC","Microsoft YaHei","DejaVu Sans","Liberation Sans","Helvetica Neue",sans-serif' font-size="12" font-weight="400" fill="#6f6a62" text-anchor="start"></text></svg>